<svg width="16" height="16" viewBox="0 0 16 16" fill="none" xmlns="http://www.w3.org/2000/svg">
<rect width="16" height="16" rx="2" fill="#E1C9A9"/>
<path d="M9.76878 2.78183C9.3834 3.03889 9.07713 3.24236 8.81171 3.38406C8.52841 3.53598 8.27064 3.62704 8.00011 3.62704C7.72702 3.62704 7.4718 3.53598 7.18595 3.38406C6.92052 3.24258 6.61171 3.03912 6.22632 2.78228C6.15486 2.79432 6.02215 2.82361 5.85115 2.88652C5.81542 2.89946 5.77714 2.91399 5.73885 2.92875C5.9073 3.06932 6.19825 3.30821 6.53514 3.54779C6.79802 3.73377 7.08386 3.91839 7.34929 4.0526C7.61472 4.18703 7.86229 4.26356 8.00011 4.26356C8.13792 4.26356 8.38294 4.18703 8.64836 4.05282C8.91124 3.91862 9.19709 3.73377 9.45997 3.54801C9.79941 3.30594 10.0955 3.065 10.2588 2.92512C10.2205 2.90968 10.1822 2.89515 10.144 2.88197C9.97296 2.82134 9.8428 2.79318 9.76878 2.78183ZM10.6978 3.11746C10.6263 3.18173 10.2384 3.51622 9.74581 3.8673C9.52122 4.02671 9.27876 4.18635 9.03375 4.3226L8.00011 6.1604L6.96391 4.32487C6.7189 4.18726 6.47389 4.02716 6.24929 3.8673C5.76693 3.52462 5.3892 3.19898 5.30243 3.12314C5.24117 3.15334 5.17992 3.18468 5.11867 3.21761C4.60312 3.49238 4.09523 3.87275 3.92704 4.17999C3.64222 4.68662 3.40639 5.1476 3.20196 5.58133L8.00011 8.77869L12.7982 5.58133C12.5915 5.1476 12.3593 4.68662 12.0734 4.17976H12.0709C11.8871 3.84981 11.3818 3.47353 10.8688 3.20375C10.8126 3.17378 10.7539 3.14517 10.6978 3.11746ZM7.64535 4.62076L8.00011 5.24752L8.34976 4.62303C8.23491 4.65483 8.11751 4.67299 8.00011 4.67299C7.8827 4.67299 7.76275 4.65483 7.64535 4.62076ZM3.38342 6.21263L3.88799 7.33216L5.45811 7.59557L3.38342 6.21263ZM12.6145 6.21263L10.5421 7.5933L12.1117 7.33216L12.6145 6.21263ZM2.90284 6.24669C2.83802 6.39657 2.77549 6.54644 2.71628 6.69178L3.30354 7.13459L2.90284 6.24669ZM13.0969 6.24669L12.6962 7.13459L13.2832 6.69178C13.2245 6.54644 13.1607 6.39657 13.0969 6.24669ZM2.55192 7.10507C2.45595 7.35259 2.36407 7.59557 2.27271 7.83855C2.7441 8.25639 3.82853 9.21696 4.99871 10.1662C5.61124 10.6635 6.23653 11.1472 6.7827 11.5287C7.28804 11.8807 7.73212 12.135 8.00011 12.2349C8.26809 12.135 8.71217 11.8807 9.21751 11.5287C9.76368 11.1472 10.389 10.6635 11.0015 10.1662C12.1704 9.21696 13.2551 8.25639 13.7273 7.83855C13.6354 7.59557 13.5435 7.35032 13.4465 7.10507L8.00011 11.204L2.55192 7.10507ZM4.18456 7.79541L6.7776 9.74834L6.11403 8.12014L4.18456 7.79541ZM11.8156 7.79541L9.88108 8.12014L9.2124 9.75515L11.8156 7.79541ZM6.73676 8.44487L7.22168 9.63025L7.72192 9.10342L6.73676 8.44487ZM9.25834 8.44941L8.27574 9.10342L8.77598 9.63025L9.25834 8.44941ZM2.63435 8.73327V9.79375H3.09375V9.13067C2.93117 8.99214 2.77574 8.85589 2.63435 8.73327ZM13.3648 8.73327C13.2245 8.85589 13.0688 8.99214 12.9054 9.13067V9.79375H13.3648V8.73327ZM8.00011 9.44632L7.32122 10.1571L8.00011 10.668L8.67389 10.1594L8.00011 9.44632ZM4.34025 10.1843V11.3152H4.79964V10.559C4.76136 10.5295 4.72563 10.4977 4.68734 10.4682C4.56994 10.3728 4.45509 10.2797 4.34025 10.1843ZM11.6498 10.1912C11.5375 10.2843 11.4252 10.3774 11.3129 10.4682C11.272 10.5023 11.2312 10.5341 11.1904 10.5681V11.3152H11.6498V10.1912ZM6.05533 11.5332V12.4575H6.51472V11.8625C6.50962 11.858 6.50451 11.8557 6.49941 11.8511C6.35649 11.7512 6.20591 11.6445 6.05533 11.5332ZM9.93978 11.5355C9.7892 11.6468 9.64372 11.7512 9.5008 11.8511C9.49314 11.8557 9.48804 11.8602 9.48038 11.8648V12.4575H9.93978V11.5355ZM7.77041 12.596V13.2182H8.2298V12.596C8.17621 12.6164 8.12261 12.6346 8.07157 12.6505L8.00011 12.6732L7.92864 12.6505C7.8776 12.6346 7.824 12.6164 7.77041 12.596Z" fill="black" fill-opacity="0.8"/>
</svg>
